<?xml version="1.0" encoding="utf-8" standalone="no"?>
<!DOCTYPE svg PUBLIC "-//W3C//DTD SVG 1.1//EN"
  "http://www.w3.org/Graphics/SVG/1.1/DTD/svg11.dtd">
<svg xmlns:xlink="http://www.w3.org/1999/xlink" width="288pt" height="288pt" viewBox="0 0 288 288" xmlns="http://www.w3.org/2000/svg" version="1.1">
 <metadata>
  <rdf:RDF xmlns:dc="http://purl.org/dc/elements/1.1/" xmlns:cc="http://creativecommons.org/ns#" xmlns:rdf="http://www.w3.org/1999/02/22-rdf-syntax-ns#">
   <cc:Work>
    <dc:type rdf:resource="http://purl.org/dc/dcmitype/StillImage"/>
    <dc:date>2026-01-29T17:15:39.602827</dc:date>
    <dc:format>image/svg+xml</dc:format>
    <dc:creator>
     <cc:Agent>
      <dc:title>Matplotlib v3.10.6, https://matplotlib.org/</dc:title>
     </cc:Agent>
    </dc:creator>
   </cc:Work>
  </rdf:RDF>
 </metadata>
 <defs>
  <style type="text/css">*{stroke-linejoin: round; stroke-linecap: butt}</style>
 </defs>
 <g id="figure_1">
  <g id="patch_1">
   <path d="M 0 288 
L 288 288 
L 288 0 
L 0 0 
z
" style="fill: #ffffff"/>
  </g>
  <g id="axes_1">
   <g id="patch_2">
    <path d="M 145.918729 50.025945 
Q 112.547894 88.958586 79.904666 127.042353 
" clip-path="url(#pf9dde46a82)" style="fill: none; stroke: #000000; stroke-linecap: round"/>
    <path d="M 84.026345 125.306909 
L 79.904666 127.042353 
L 80.989318 122.703743 
z
" clip-path="url(#pf9dde46a82)" style="stroke: #000000; stroke-linecap: round"/>
   </g>
   <g id="patch_3">
    <path d="M 173.533455 50.025945 
Q 206.90429 88.958586 239.547518 127.042353 
" clip-path="url(#pf9dde46a82)" style="fill: none; stroke: #000000; stroke-linecap: round"/>
    <path d="M 238.462866 122.703743 
L 239.547518 127.042353 
L 235.42584 125.306909 
z
" clip-path="url(#pf9dde46a82)" style="stroke: #000000; stroke-linecap: round"/>
   </g>
   <g id="patch_4">
    <path d="M 59.542324 164.395256 
Q 49.644007 199.039363 40.052838 232.608455 
" clip-path="url(#pf9dde46a82)" style="fill: none; stroke: #000000; stroke-linecap: round"/>
    <path d="M 43.074771 229.311801 
L 40.052838 232.608455 
L 39.228675 228.212917 
z
" clip-path="url(#pf9dde46a82)" style="stroke: #000000; stroke-linecap: round"/>
   </g>
   <g id="patch_5">
    <path d="M 71.196755 164.395256 
Q 81.095072 199.039363 90.686241 232.608455 
" clip-path="url(#pf9dde46a82)" style="fill: none; stroke: #000000; stroke-linecap: round"/>
    <path d="M 91.510404 228.212917 
L 90.686241 232.608455 
L 87.664309 229.311801 
z
" clip-path="url(#pf9dde46a82)" style="stroke: #000000; stroke-linecap: round"/>
   </g>
   <g id="PathCollection_1">
    <defs>
     <path id="mee586dc6d5" d="M 0 21.213203 
C 5.625807 21.213203 11.021954 18.978047 15 15 
C 18.978047 11.021954 21.213203 5.625807 21.213203 0 
C 21.213203 -5.625807 18.978047 -11.021954 15 -15 
C 11.021954 -18.978047 5.625807 -21.213203 0 -21.213203 
C -5.625807 -21.213203 -11.021954 -18.978047 -15 -15 
C -18.978047 -11.021954 -21.213203 -5.625807 -21.213203 0 
C -21.213203 5.625807 -18.978047 11.021954 -15 15 
C -11.021954 18.978047 -5.625807 21.213203 0 21.213203 
z
" style="stroke: #000000"/>
    </defs>
    <g clip-path="url(#pf9dde46a82)">
     <use xlink:href="#mee586dc6d5" x="159.726092" y="33.917355" style="fill: #ffffff; stroke: #000000"/>
     <use xlink:href="#mee586dc6d5" x="65.36954" y="144" style="fill: #ffffff; stroke: #000000"/>
     <use xlink:href="#mee586dc6d5" x="254.082645" y="144" style="fill: #ffffff; stroke: #000000"/>
     <use xlink:href="#mee586dc6d5" x="33.917355" y="254.082645" style="fill: #ffffff; stroke: #000000"/>
     <use xlink:href="#mee586dc6d5" x="96.821724" y="254.082645" style="fill: #ffffff; stroke: #000000"/>
    </g>
   </g>
   <g id="text_1">
    <g clip-path="url(#pf9dde46a82)">
     <!-- A -->
     <g transform="translate(156.647811 31.361777) scale(0.09 -0.09)">
      <defs>
       <path id="DejaVuSans-41" d="M 2188 4044 
L 1331 1722 
L 3047 1722 
L 2188 4044 
z
M 1831 4666 
L 2547 4666 
L 4325 0 
L 3669 0 
L 3244 1197 
L 1141 1197 
L 716 0 
L 50 0 
L 1831 4666 
z
" transform="scale(0.015625)"/>
      </defs>
      <use xlink:href="#DejaVuSans-41"/>
     </g>
    </g>
    <g clip-path="url(#pf9dde46a82)">
     <!-- (2, 7) -->
     <g transform="translate(147.628123 41.439808) scale(0.09 -0.09)">
      <defs>
       <path id="DejaVuSans-28" d="M 1984 4856 
Q 1566 4138 1362 3434 
Q 1159 2731 1159 2009 
Q 1159 1288 1364 580 
Q 1569 -128 1984 -844 
L 1484 -844 
Q 1016 -109 783 600 
Q 550 1309 550 2009 
Q 550 2706 781 3412 
Q 1013 4119 1484 4856 
L 1984 4856 
z
" transform="scale(0.015625)"/>
       <path id="DejaVuSans-32" d="M 1228 531 
L 3431 531 
L 3431 0 
L 469 0 
L 469 531 
Q 828 903 1448 1529 
Q 2069 2156 2228 2338 
Q 2531 2678 2651 2914 
Q 2772 3150 2772 3378 
Q 2772 3750 2511 3984 
Q 2250 4219 1831 4219 
Q 1534 4219 1204 4116 
Q 875 4013 500 3803 
L 500 4441 
Q 881 4594 1212 4672 
Q 1544 4750 1819 4750 
Q 2544 4750 2975 4387 
Q 3406 4025 3406 3419 
Q 3406 3131 3298 2873 
Q 3191 2616 2906 2266 
Q 2828 2175 2409 1742 
Q 1991 1309 1228 531 
z
" transform="scale(0.015625)"/>
       <path id="DejaVuSans-2c" d="M 750 794 
L 1409 794 
L 1409 256 
L 897 -744 
L 494 -744 
L 750 256 
L 750 794 
z
" transform="scale(0.015625)"/>
       <path id="DejaVuSans-20" transform="scale(0.015625)"/>
       <path id="DejaVuSans-37" d="M 525 4666 
L 3525 4666 
L 3525 4397 
L 1831 0 
L 1172 0 
L 2766 4134 
L 525 4134 
L 525 4666 
z
" transform="scale(0.015625)"/>
       <path id="DejaVuSans-29" d="M 513 4856 
L 1013 4856 
Q 1481 4119 1714 3412 
Q 1947 2706 1947 2009 
Q 1947 1309 1714 600 
Q 1481 -109 1013 -844 
L 513 -844 
Q 928 -128 1133 580 
Q 1338 1288 1338 2009 
Q 1338 2731 1133 3434 
Q 928 4138 513 4856 
z
" transform="scale(0.015625)"/>
      </defs>
      <use xlink:href="#DejaVuSans-28"/>
      <use xlink:href="#DejaVuSans-32" transform="translate(39.013672 0)"/>
      <use xlink:href="#DejaVuSans-2c" transform="translate(102.636719 0)"/>
      <use xlink:href="#DejaVuSans-20" transform="translate(134.423828 0)"/>
      <use xlink:href="#DejaVuSans-37" transform="translate(166.210938 0)"/>
      <use xlink:href="#DejaVuSans-29" transform="translate(229.833984 0)"/>
     </g>
    </g>
   </g>
   <g id="text_2">
    <g clip-path="url(#pf9dde46a82)">
     <!-- B -->
     <g transform="translate(62.282118 141.444422) scale(0.09 -0.09)">
      <defs>
       <path id="DejaVuSans-42" d="M 1259 2228 
L 1259 519 
L 2272 519 
Q 2781 519 3026 730 
Q 3272 941 3272 1375 
Q 3272 1813 3026 2020 
Q 2781 2228 2272 2228 
L 1259 2228 
z
M 1259 4147 
L 1259 2741 
L 2194 2741 
Q 2656 2741 2882 2914 
Q 3109 3088 3109 3444 
Q 3109 3797 2882 3972 
Q 2656 4147 2194 4147 
L 1259 4147 
z
M 628 4666 
L 2241 4666 
Q 2963 4666 3353 4366 
Q 3744 4066 3744 3513 
Q 3744 3084 3544 2831 
Q 3344 2578 2956 2516 
Q 3422 2416 3680 2098 
Q 3938 1781 3938 1306 
Q 3938 681 3513 340 
Q 3088 0 2303 0 
L 628 0 
L 628 4666 
z
" transform="scale(0.015625)"/>
      </defs>
      <use xlink:href="#DejaVuSans-42"/>
     </g>
    </g>
    <g clip-path="url(#pf9dde46a82)">
     <!-- (5, 4) -->
     <g transform="translate(53.271571 151.522453) scale(0.09 -0.09)">
      <defs>
       <path id="DejaVuSans-35" d="M 691 4666 
L 3169 4666 
L 3169 4134 
L 1269 4134 
L 1269 2991 
Q 1406 3038 1543 3061 
Q 1681 3084 1819 3084 
Q 2600 3084 3056 2656 
Q 3513 2228 3513 1497 
Q 3513 744 3044 326 
Q 2575 -91 1722 -91 
Q 1428 -91 1123 -41 
Q 819 9 494 109 
L 494 744 
Q 775 591 1075 516 
Q 1375 441 1709 441 
Q 2250 441 2565 725 
Q 2881 1009 2881 1497 
Q 2881 1984 2565 2268 
Q 2250 2553 1709 2553 
Q 1456 2553 1204 2497 
Q 953 2441 691 2322 
L 691 4666 
z
" transform="scale(0.015625)"/>
       <path id="DejaVuSans-34" d="M 2419 4116 
L 825 1625 
L 2419 1625 
L 2419 4116 
z
M 2253 4666 
L 3047 4666 
L 3047 1625 
L 3713 1625 
L 3713 1100 
L 3047 1100 
L 3047 0 
L 2419 0 
L 2419 1100 
L 313 1100 
L 313 1709 
L 2253 4666 
z
" transform="scale(0.015625)"/>
      </defs>
      <use xlink:href="#DejaVuSans-28"/>
      <use xlink:href="#DejaVuSans-35" transform="translate(39.013672 0)"/>
      <use xlink:href="#DejaVuSans-2c" transform="translate(102.636719 0)"/>
      <use xlink:href="#DejaVuSans-20" transform="translate(134.423828 0)"/>
      <use xlink:href="#DejaVuSans-34" transform="translate(166.210938 0)"/>
      <use xlink:href="#DejaVuSans-29" transform="translate(229.833984 0)"/>
     </g>
    </g>
   </g>
   <g id="text_3">
    <g clip-path="url(#pf9dde46a82)">
     <!-- C -->
     <g transform="translate(250.940379 141.444422) scale(0.09 -0.09)">
      <defs>
       <path id="DejaVuSans-43" d="M 4122 4306 
L 4122 3641 
Q 3803 3938 3442 4084 
Q 3081 4231 2675 4231 
Q 1875 4231 1450 3742 
Q 1025 3253 1025 2328 
Q 1025 1406 1450 917 
Q 1875 428 2675 428 
Q 3081 428 3442 575 
Q 3803 722 4122 1019 
L 4122 359 
Q 3791 134 3420 21 
Q 3050 -91 2638 -91 
Q 1578 -91 968 557 
Q 359 1206 359 2328 
Q 359 3453 968 4101 
Q 1578 4750 2638 4750 
Q 3056 4750 3426 4639 
Q 3797 4528 4122 4306 
z
" transform="scale(0.015625)"/>
      </defs>
      <use xlink:href="#DejaVuSans-43"/>
     </g>
    </g>
    <g clip-path="url(#pf9dde46a82)">
     <!-- (9, 6) -->
     <g transform="translate(241.984676 151.522453) scale(0.09 -0.09)">
      <defs>
       <path id="DejaVuSans-39" d="M 703 97 
L 703 672 
Q 941 559 1184 500 
Q 1428 441 1663 441 
Q 2288 441 2617 861 
Q 2947 1281 2994 2138 
Q 2813 1869 2534 1725 
Q 2256 1581 1919 1581 
Q 1219 1581 811 2004 
Q 403 2428 403 3163 
Q 403 3881 828 4315 
Q 1253 4750 1959 4750 
Q 2769 4750 3195 4129 
Q 3622 3509 3622 2328 
Q 3622 1225 3098 567 
Q 2575 -91 1691 -91 
Q 1453 -91 1209 -44 
Q 966 3 703 97 
z
M 1959 2075 
Q 2384 2075 2632 2365 
Q 2881 2656 2881 3163 
Q 2881 3666 2632 3958 
Q 2384 4250 1959 4250 
Q 1534 4250 1286 3958 
Q 1038 3666 1038 3163 
Q 1038 2656 1286 2365 
Q 1534 2075 1959 2075 
z
" transform="scale(0.015625)"/>
       <path id="DejaVuSans-36" d="M 2113 2584 
Q 1688 2584 1439 2293 
Q 1191 2003 1191 1497 
Q 1191 994 1439 701 
Q 1688 409 2113 409 
Q 2538 409 2786 701 
Q 3034 994 3034 1497 
Q 3034 2003 2786 2293 
Q 2538 2584 2113 2584 
z
M 3366 4563 
L 3366 3988 
Q 3128 4100 2886 4159 
Q 2644 4219 2406 4219 
Q 1781 4219 1451 3797 
Q 1122 3375 1075 2522 
Q 1259 2794 1537 2939 
Q 1816 3084 2150 3084 
Q 2853 3084 3261 2657 
Q 3669 2231 3669 1497 
Q 3669 778 3244 343 
Q 2819 -91 2113 -91 
Q 1303 -91 875 529 
Q 447 1150 447 2328 
Q 447 3434 972 4092 
Q 1497 4750 2381 4750 
Q 2619 4750 2861 4703 
Q 3103 4656 3366 4563 
z
" transform="scale(0.015625)"/>
      </defs>
      <use xlink:href="#DejaVuSans-28"/>
      <use xlink:href="#DejaVuSans-39" transform="translate(39.013672 0)"/>
      <use xlink:href="#DejaVuSans-2c" transform="translate(102.636719 0)"/>
      <use xlink:href="#DejaVuSans-20" transform="translate(134.423828 0)"/>
      <use xlink:href="#DejaVuSans-36" transform="translate(166.210938 0)"/>
      <use xlink:href="#DejaVuSans-29" transform="translate(229.833984 0)"/>
     </g>
    </g>
   </g>
   <g id="text_4">
    <g clip-path="url(#pf9dde46a82)">
     <!-- D -->
     <g transform="translate(30.452355 251.527067) scale(0.09 -0.09)">
      <defs>
       <path id="DejaVuSans-44" d="M 1259 4147 
L 1259 519 
L 2022 519 
Q 2988 519 3436 956 
Q 3884 1394 3884 2338 
Q 3884 3275 3436 3711 
Q 2988 4147 2022 4147 
L 1259 4147 
z
M 628 4666 
L 1925 4666 
Q 3281 4666 3915 4102 
Q 4550 3538 4550 2338 
Q 4550 1131 3912 565 
Q 3275 0 1925 0 
L 628 0 
L 628 4666 
z
" transform="scale(0.015625)"/>
      </defs>
      <use xlink:href="#DejaVuSans-44"/>
     </g>
    </g>
    <g clip-path="url(#pf9dde46a82)">
     <!-- (4, 2) -->
     <g transform="translate(21.819387 261.605098) scale(0.09 -0.09)">
      <use xlink:href="#DejaVuSans-28"/>
      <use xlink:href="#DejaVuSans-34" transform="translate(39.013672 0)"/>
      <use xlink:href="#DejaVuSans-2c" transform="translate(102.636719 0)"/>
      <use xlink:href="#DejaVuSans-20" transform="translate(134.423828 0)"/>
      <use xlink:href="#DejaVuSans-32" transform="translate(166.210938 0)"/>
      <use xlink:href="#DejaVuSans-29" transform="translate(229.833984 0)"/>
     </g>
    </g>
   </g>
   <g id="text_5">
    <g clip-path="url(#pf9dde46a82)">
     <!-- E -->
     <g transform="translate(93.978286 251.527067) scale(0.09 -0.09)">
      <defs>
       <path id="DejaVuSans-45" d="M 628 4666 
L 3578 4666 
L 3578 4134 
L 1259 4134 
L 1259 2753 
L 3481 2753 
L 3481 2222 
L 1259 2222 
L 1259 531 
L 3634 531 
L 3634 0 
L 628 0 
L 628 4666 
z
" transform="scale(0.015625)"/>
      </defs>
      <use xlink:href="#DejaVuSans-45"/>
     </g>
    </g>
    <g clip-path="url(#pf9dde46a82)">
     <!-- (8, 1) -->
     <g transform="translate(84.723755 261.605098) scale(0.09 -0.09)">
      <defs>
       <path id="DejaVuSans-38" d="M 2034 2216 
Q 1584 2216 1326 1975 
Q 1069 1734 1069 1313 
Q 1069 891 1326 650 
Q 1584 409 2034 409 
Q 2484 409 2743 651 
Q 3003 894 3003 1313 
Q 3003 1734 2745 1975 
Q 2488 2216 2034 2216 
z
M 1403 2484 
Q 997 2584 770 2862 
Q 544 3141 544 3541 
Q 544 4100 942 4425 
Q 1341 4750 2034 4750 
Q 2731 4750 3128 4425 
Q 3525 4100 3525 3541 
Q 3525 3141 3298 2862 
Q 3072 2584 2669 2484 
Q 3125 2378 3379 2068 
Q 3634 1759 3634 1313 
Q 3634 634 3220 271 
Q 2806 -91 2034 -91 
Q 1263 -91 848 271 
Q 434 634 434 1313 
Q 434 1759 690 2068 
Q 947 2378 1403 2484 
z
M 1172 3481 
Q 1172 3119 1398 2916 
Q 1625 2713 2034 2713 
Q 2441 2713 2670 2916 
Q 2900 3119 2900 3481 
Q 2900 3844 2670 4047 
Q 2441 4250 2034 4250 
Q 1625 4250 1398 4047 
Q 1172 3844 1172 3481 
z
" transform="scale(0.015625)"/>
       <path id="DejaVuSans-31" d="M 794 531 
L 1825 531 
L 1825 4091 
L 703 3866 
L 703 4441 
L 1819 4666 
L 2450 4666 
L 2450 531 
L 3481 531 
L 3481 0 
L 794 0 
L 794 531 
z
" transform="scale(0.015625)"/>
      </defs>
      <use xlink:href="#DejaVuSans-28"/>
      <use xlink:href="#DejaVuSans-38" transform="translate(39.013672 0)"/>
      <use xlink:href="#DejaVuSans-2c" transform="translate(102.636719 0)"/>
      <use xlink:href="#DejaVuSans-20" transform="translate(134.423828 0)"/>
      <use xlink:href="#DejaVuSans-31" transform="translate(166.210938 0)"/>
      <use xlink:href="#DejaVuSans-29" transform="translate(229.833984 0)"/>
     </g>
    </g>
   </g>
  </g>
 </g>
 <defs>
  <clipPath id="pf9dde46a82">
   <rect x="10.8" y="10.8" width="266.4" height="266.4"/>
  </clipPath>
 </defs>
</svg>
